<?xml version="1.0" encoding="UTF-8" standalone="no"?>
<!-- Created with Inkscape (http://www.inkscape.org/) -->

<svg
   xmlns:dc="http://purl.org/dc/elements/1.1/"
   xmlns:cc="http://creativecommons.org/ns#"
   xmlns:rdf="http://www.w3.org/1999/02/22-rdf-syntax-ns#"
   xmlns:svg="http://www.w3.org/2000/svg"
   xmlns="http://www.w3.org/2000/svg"
   xmlns:sodipodi="http://sodipodi.sourceforge.net/DTD/sodipodi-0.dtd"
   xmlns:inkscape="http://www.inkscape.org/namespaces/inkscape"
   version="1.1"
   id="svg2"
   xml:space="preserve"
   width="444.48904"
   height="515.60767"
   viewBox="0 0 444.48903 515.60768"
   sodipodi:docname="logo-small.svg"
   inkscape:version="0.92.3 (2405546, 2018-03-11)"><metadata
     id="metadata8"><rdf:RDF><cc:Work
         rdf:about=""><dc:format>image/svg+xml</dc:format><dc:type
           rdf:resource="http://purl.org/dc/dcmitype/StillImage" /><dc:title></dc:title></cc:Work></rdf:RDF></metadata><defs
     id="defs6"><clipPath
       clipPathUnits="userSpaceOnUse"
       id="clipPath20"><path
         d="m 89.285,19.371 c 0,0 -0.207,-0.195 -0.453,-0.152 -0.777,0.875 -2.477,1.511 -2.875,2.269 -1.371,0.649 -2.059,1.141 -3.785,1.516 -1.399,-1.316 -3.488,0.144 -4.234,-1.363 -0.356,-0.715 0.003,-1.5 -0.153,-2.422 -0.246,-0.66 -1.008,-0.809 -1.058,-1.664 -1.915,0.05 -2.469,-0.625 -3.786,-0.758 0.039,-0.395 -0.824,-1.047 -0.757,-1.969 0,0.156 -0.262,0.192 -0.301,0 0.527,-0.875 -0.11,-2.133 -0.606,-2.871 0.215,-0.187 0.285,-0.523 0.301,-0.91 0.09,-0.434 -0.785,-0.692 -0.906,-1.363 -2.016,-0.286 -3.563,-0.278 -5.297,0.757 -1.109,-0.777 -2.184,-0.8 -3.027,-1.664 0.484,-1.363 0.804,-2.16 0.605,-3.328 1.035,-0.168 1.008,-1.168 1.059,-1.969 0.3,0.25 0.195,-0.015 0.609,0 C 64.727,2.016 65.219,1.438 65.375,0.301 65.195,0.23 65.031,0.141 64.922,0 64.102,0.039 63.738,0.531 63.105,0.758 63.227,2.426 61.98,2.508 62.199,3.629 60.906,4.094 60.062,5.031 59.777,5.75 58.785,5.918 58.535,6.828 57.957,7.414 57.684,7.137 57.449,6.816 57.055,6.66 55.801,6.957 55.109,6.262 54.328,6.203 54.91,5.879 54.145,6.016 54.328,5.297 53.477,5.594 53.855,4.66 53.57,4.387 52.582,4.227 52.621,4.617 51.305,4.691 l 0.074,0.227 -0.227,-0.074 c -0.675,0.738 -1.754,0.879 -2.683,0.75 -0.637,0.433 -1.426,0.707 -2.395,0.707 -1.512,0 -2.597,-0.649 -3.289,-1.571 -0.07,0.184 -0.156,0.329 -0.262,0.415 C 41.996,4.688 42.188,5.227 41.316,4.992 40.848,4.66 40.699,4.246 40.406,4.086 39.496,3.984 39.152,3.32 38.137,3.328 c -0.114,0.59 -0.891,0.231 -1.211,0.457 -0.153,0.106 0.097,0.387 -0.153,0.453 -0.55,0.153 -0.41,0.7 -0.753,1.059 -0.458,0.008 -0.844,0.324 -0.997,0.414 -0.683,0.98 -1.793,1.668 -3.355,1.668 -0.637,0 -1.195,-0.125 -1.688,-0.324 -0.335,0.23 -0.429,0.601 -0.921,0.812 C 28.641,8.047 27.941,7.82 27.543,8.172 26.816,6.73 25.496,5.879 24.215,4.992 24.09,4.816 24.016,4.586 24.062,4.238 23.516,4.227 23.328,3.863 22.852,3.785 c -0.25,1.672 0.339,3.363 0.457,4.84 -0.485,0.133 -0.579,-0.133 -0.758,-0.301 -0.11,0.883 -0.149,1.258 0.148,1.969 -0.527,0.019 -0.359,0.746 -1.054,0.605 -0.215,-0.039 -0.176,-0.336 -0.309,-0.453 -0.574,0.125 -1.156,0.254 -1.813,0.301 0.52,0.512 -0.281,0.324 -0.457,0.606 -0.144,0.238 0.215,1.105 -0.453,0.906 0.348,1.18 -0.234,3.039 -0.906,4.086 -0.758,0.16 -1.223,0.867 -1.859,1.015 -0.692,0.914 -1.774,1.547 -3.27,1.547 -0.402,0 -0.769,-0.058 -1.113,-0.14 0.246,0.289 0.465,0.593 0.492,1.058 0.02,0.406 -0.59,0.84 -0.305,1.516 -1.289,0.742 -1.175,1.953 -2.722,2.418 0.164,0.039 0.363,0.25 0.152,0.304 C 7.73,23.234 6.914,24.609 6.055,24.668 5.395,25.75 6.262,27.07 5.75,28.301 6.234,28.168 6.223,28.531 6.355,28.754 5.031,28.773 3.473,27.832 2.875,26.633 3.082,26.641 3.207,26.562 3.328,26.484 3.469,24.523 1.285,24.09 0.152,23.91 L 0.227,24.137 0,24.211 c 0.449,0.867 1.555,1.066 2.117,1.816 -0.09,0.465 -0.5,0.61 -0.758,0.911 0.332,0.019 0.329,0.378 0.305,0.753 1.598,0.774 3.008,1.735 4.391,2.727 0.343,0.398 0.343,0.961 0,1.359 0.113,0.035 0.293,0.004 0.3,0.153 C 5.953,32.664 5.43,33.996 5.75,34.957 H 5.477 c 1.128,1.586 1.097,3.953 -0.098,5.492 0.019,0.035 0.055,0.063 0.066,0.106 -0.187,0.972 -0.441,1.883 -0.605,2.875 -0.672,0.004 -0.594,0.922 -0.754,1.363 -0.316,0.863 -0.953,1.762 -1.063,2.422 -0.335,2.027 0.286,3.656 1.817,4.539 0.281,1.691 2.105,1.832 2.574,3.332 0.727,0.566 0.981,2.457 0.606,3.93 C 7.578,58.98 7.496,59.305 7.266,59.473 5.77,59.035 4.234,59.18 3.328,60.078 2.09,59.848 0.758,60.531 0.758,60.531 l 0.449,1.668 c 0,0 1.453,-0.644 2.426,-1.062 0.801,-0.344 0.957,-0.782 1.965,-0.453 0.347,0.683 0.32,1.578 0.605,2.117 1.383,0.637 2.613,-0.328 4.238,0.152 0.114,0.594 0.684,0.727 1.059,1.063 0.648,0.804 0.363,1.8 0.906,2.57 0.406,0.57 1.469,0.637 1.211,1.211 1.235,0.004 2.231,0.234 2.571,0.754 0.996,1.5 -0.184,2.957 -1.36,2.879 -0.578,0.882 -1.148,1.773 -2.422,1.965 -0.172,0.785 -1.008,0.906 -1.664,1.21 0.106,0.465 0.106,0.293 0,0.758 0.199,0.153 0.559,0.149 0.758,0.301 0.738,-0.676 1.867,-0.957 2.422,-1.816 1.461,0.101 2.598,-0.125 3.48,-0.606 -0.152,-0.004 -0.191,-0.265 0,-0.301 1.961,-0.953 3.27,1.715 5.75,1.36 0.239,0.871 1.289,0.933 1.364,1.969 -0.438,0.07 -0.36,0.652 -0.758,0.757 0.023,1.207 -0.938,1.809 -0.906,2.571 h -0.454 c -0.058,0.277 -0.125,0.515 -0.199,0.726 0.75,-0.219 1.559,-0.254 2.336,-0.043 0.117,0.035 0.223,0.09 0.336,0.133 0.067,-0.035 0.141,-0.066 0.25,-0.059 v -1.058 c 1.039,-0.363 5.445,1.797 6.453,1.383 C 31.031,79.262 26.715,74.918 25.523,74.039 16.418,67.324 11.227,56.574 11.633,45.289 12.238,28.504 25.34,14.422 42.105,12.535 c 0.645,-0.074 1.293,0.164 1.747,0.637 0.449,0.469 0.656,1.129 0.554,1.773 l -3.894,24.41 h 7.265 c 0.645,0 1.25,0.297 1.649,0.805 0.394,0.504 0.539,1.164 0.386,1.789 L 45.508,59.41 58.051,37.527 h -7.496 c -0.625,0 -1.219,-0.281 -1.617,-0.765 -0.399,-0.485 -0.555,-1.125 -0.434,-1.739 l 3.969,-19.851 c 0.117,-0.574 0.465,-1.07 0.961,-1.375 0.496,-0.305 1.097,-0.387 1.656,-0.231 5.504,1.543 10.598,4.512 14.738,8.586 6.59,6.485 10.219,15.149 10.219,24.391 0,10.863 -5.25,21.184 -14.051,27.605 -1.637,1.188 -5.723,3.145 -6.012,5.379 0.036,-0.027 -0.605,0.114 0.106,-0.078 2.043,0.524 4.871,3.293 8.012,2.727 0.343,-1.309 0.433,-2.688 -0.762,-3.332 0.629,-0.289 0.816,-1.098 0.91,-1.512 1.094,-0.746 1.293,-0.922 2.27,-1.969 1.242,-0.301 3.75,-1.336 4.542,0.153 1.29,0.078 2.165,0.668 2.876,-0.454 0.476,0.075 0.535,-0.273 1.058,-0.152 l -0.074,-0.226 0.226,-0.079 c -0.558,-0.597 -0.39,-1.304 -1.058,-2.117 1.156,-0.281 1.672,-0.371 2.722,-0.605 0.075,-0.531 0.387,-0.824 0.606,-1.211 -0.449,-0.512 -0.609,-1.305 -1.211,-1.664 0.063,-0.719 -0.07,-1.238 -0.305,-1.664 0.649,-0.821 0.856,-2.071 1.664,-2.727 0.735,-0.125 1.118,-0.031 1.563,0.094 0.023,-0.02 0.051,-0.043 0.074,-0.066 0,-1.11 0.399,-2.211 1.223,-3.047 -0.137,-0.321 -0.235,-0.664 -0.434,-0.91 0.199,-0.157 0.563,-0.145 0.606,-0.458 -0.274,-0.332 -0.133,-1.078 -0.305,-1.511 0.695,-0.426 0.457,-1.047 1.059,-1.364 -0.176,-0.023 -0.426,0.024 -0.454,-0.152 0.801,-0.519 0.446,-1.594 0.606,-3.18 0.336,-0.269 0.805,-0.402 1.058,-0.753 0.583,0.382 1.415,-0.184 1.969,-0.153 0.387,0.024 0.68,0.313 1.059,0.305 2.125,-0.047 -1.293,-1.32 0.859,-1.363 -0.289,-0.704 -0.398,-1.477 -0.332,-2.243 -0.543,0.016 -1.058,0.118 -1.465,0.274 -0.39,-0.164 -0.738,-0.367 -1.359,-0.305 -0.199,0.004 -0.141,0.27 -0.305,0.305 -0.832,-0.703 2.95,0.14 1.543,-0.152 -0.008,-0.208 0.071,-0.333 0.153,-0.45 -0.672,0.336 -0.911,-0.406 -1.516,0 0.457,-0.593 -0.879,-0.761 -1.059,-0.758 0.313,-0.042 0.301,-0.406 0.457,-0.609 -0.527,0.074 -0.171,-0.738 -0.605,-0.754 0.012,-0.238 0.383,-0.117 0.301,-0.453 -0.539,-0.902 0.039,-1.512 0.011,-2.34 -0.957,-1.39 -1.023,-3.347 -0.226,-4.832 -0.18,-0.613 -0.231,-1.258 -0.164,-1.894 -0.086,-0.692 3.668,-2.739 3.879,-3.399 -0.09,-0.234 2.875,0.387 -0.125,-0.781 -0.117,-0.574 -3.832,0.164 -3.739,-0.418 -0.156,-0.941 -0.543,-1.816 -0.242,-2.531 -0.769,-0.188 -1.004,-0.91 -1.968,-0.907 v -0.457 c -0.567,0.086 -0.973,0.157 -1.211,0 -0.024,-1.132 -0.762,-1.554 -0.606,-2.871 1.317,-0.789 1.602,-1.996 2.727,-2.726 0.859,0.008 1.429,-0.703 2.117,-1.059 0.133,-0.066 0.461,0.082 0.605,0 0.442,-0.242 0.731,-0.785 1.211,-1.058 0.657,-0.371 1.418,-0.52 2.27,-0.758 0.258,-0.395 1.211,-0.754 1.211,-0.754 z"
         id="path18"
         inkscape:connector-curvature="0" /></clipPath><linearGradient
       x1="330.94052"
       y1="506.46106"
       x2="507.61954"
       y2="506.46106"
       gradientUnits="userSpaceOnUse"
       gradientTransform="matrix(0.610454,0,0,0.610454,-208.14058,-268.04516)"
       spreadMethod="pad"
       id="linearGradient28"><stop
         style="stop-opacity:1;stop-color:#ffe259"
         offset="0"
         id="stop24" /><stop
         style="stop-opacity:1;stop-color:#ffa751"
         offset="1"
         id="stop26" /></linearGradient><clipPath
       clipPathUnits="userSpaceOnUse"
       id="clipPath42"><path
         d="M 0,0 H 271 V 107 H 0 Z"
         id="path40"
         inkscape:connector-curvature="0" /></clipPath><clipPath
       clipPathUnits="userSpaceOnUse"
       id="clipPath58"><path
         d="M 0,0 H 271 V 107 H 0 Z"
         id="path56"
         inkscape:connector-curvature="0" /></clipPath><clipPath
       clipPathUnits="userSpaceOnUse"
       id="clipPath80"><path
         d="M 0,0 H 271 V 107 H 0 Z"
         id="path78"
         inkscape:connector-curvature="0" /></clipPath><clipPath
       clipPathUnits="userSpaceOnUse"
       id="clipPath98"><path
         d="m 99.594,86.359 c 0.312,-0.308 0.504,-0.5 0.504,-0.5 h -6.641 v 12.575 h 7.621 v 0.589 H 92.867 V 85.27 h 8.664 l -1.222,1.089 m -3.961,4.133 -0.828,0.75 h 4.398 v 0.59 h -5.832 c 0,0 0.898,-0.894 1.348,-1.34"
         id="path96"
         inkscape:connector-curvature="0" /></clipPath><linearGradient
       x1="131.97801"
       y1="122.8613"
       x2="143.52992"
       y2="122.8613"
       gradientUnits="userSpaceOnUse"
       gradientTransform="matrix(0.75,0,0,0.75,-6.116738,0)"
       spreadMethod="pad"
       id="linearGradient106"><stop
         style="stop-opacity:1;stop-color:#ffe259"
         offset="0"
         id="stop102" /><stop
         style="stop-opacity:1;stop-color:#ffa751"
         offset="1"
         id="stop104" /></linearGradient><clipPath
       clipPathUnits="userSpaceOnUse"
       id="clipPath128"><path
         d="m 173.164,94.777 -0.293,-0.507 1.102,-0.629 c 0.902,-0.5 1.355,-1.293 1.355,-2.379 0,-2.032 -1.547,-3.047 -4.637,-3.047 h -1.808 v 14.738 h -0.59 V 87.629 h 2.398 c 1.727,0 3.032,0.32 3.911,0.961 0.875,0.629 1.316,1.519 1.316,2.672 0,1.308 -0.551,2.273 -1.652,2.886 z"
         id="path126"
         inkscape:connector-curvature="0" /></clipPath><linearGradient
       x1="232.54716"
       y1="127.05247"
       x2="242.71074"
       y2="127.05247"
       gradientUnits="userSpaceOnUse"
       gradientTransform="matrix(0.75,0,0,0.75,-6.116738,0)"
       spreadMethod="pad"
       id="linearGradient136"><stop
         style="stop-opacity:1;stop-color:#ffe259"
         offset="0"
         id="stop132" /><stop
         style="stop-opacity:1;stop-color:#ffa751"
         offset="1"
         id="stop134" /></linearGradient></defs><sodipodi:namedview
     pagecolor="#ffffff"
     bordercolor="#666666"
     borderopacity="1"
     objecttolerance="10"
     gridtolerance="10"
     guidetolerance="10"
     inkscape:pageopacity="0"
     inkscape:pageshadow="2"
     inkscape:window-width="1321"
     inkscape:window-height="734"
     id="namedview4"
     showgrid="false"
     inkscape:zoom="0.75867601"
     inkscape:cx="263.76163"
     inkscape:cy="235.03719"
     inkscape:window-x="45"
     inkscape:window-y="0"
     inkscape:window-maximized="1"
     inkscape:current-layer="g12"
     fit-margin-top="0"
     fit-margin-left="0"
     fit-margin-right="0"
     fit-margin-bottom="0" /><g
     id="g10"
     inkscape:groupmode="layer"
     inkscape:label="logo_5_3_2"
     transform="matrix(1.3333333,0,0,1.3333333,108.08303,373.29568)"><g
       id="g12"><g
         id="g14"
         transform="matrix(3.6230794,0,0,3.6230794,-81.062273,-279.97177)"><g
           id="g16"
           clip-path="url(#clipPath20)"><g
             id="g22"><path
               d="m 89.285,19.371 c 0,0 -0.207,-0.195 -0.453,-0.152 -0.777,0.875 -2.477,1.511 -2.875,2.269 -1.371,0.649 -2.059,1.141 -3.785,1.516 -1.399,-1.316 -3.488,0.144 -4.234,-1.363 -0.356,-0.715 0.003,-1.5 -0.153,-2.422 -0.246,-0.66 -1.008,-0.809 -1.058,-1.664 -1.915,0.05 -2.469,-0.625 -3.786,-0.758 0.039,-0.395 -0.824,-1.047 -0.757,-1.969 0,0.156 -0.262,0.192 -0.301,0 0.527,-0.875 -0.11,-2.133 -0.606,-2.871 0.215,-0.187 0.285,-0.523 0.301,-0.91 0.09,-0.434 -0.785,-0.692 -0.906,-1.363 -2.016,-0.286 -3.563,-0.278 -5.297,0.757 -1.109,-0.777 -2.184,-0.8 -3.027,-1.664 0.484,-1.363 0.804,-2.16 0.605,-3.328 1.035,-0.168 1.008,-1.168 1.059,-1.969 0.3,0.25 0.195,-0.015 0.609,0 C 64.727,2.016 65.219,1.438 65.375,0.301 65.195,0.23 65.031,0.141 64.922,0 64.102,0.039 63.738,0.531 63.105,0.758 63.227,2.426 61.98,2.508 62.199,3.629 60.906,4.094 60.062,5.031 59.777,5.75 58.785,5.918 58.535,6.828 57.957,7.414 57.684,7.137 57.449,6.816 57.055,6.66 55.801,6.957 55.109,6.262 54.328,6.203 54.91,5.879 54.145,6.016 54.328,5.297 53.477,5.594 53.855,4.66 53.57,4.387 52.582,4.227 52.621,4.617 51.305,4.691 l 0.074,0.227 -0.227,-0.074 c -0.675,0.738 -1.754,0.879 -2.683,0.75 -0.637,0.433 -1.426,0.707 -2.395,0.707 -1.512,0 -2.597,-0.649 -3.289,-1.571 -0.07,0.184 -0.156,0.329 -0.262,0.415 C 41.996,4.688 42.188,5.227 41.316,4.992 40.848,4.66 40.699,4.246 40.406,4.086 39.496,3.984 39.152,3.32 38.137,3.328 c -0.114,0.59 -0.891,0.231 -1.211,0.457 -0.153,0.106 0.097,0.387 -0.153,0.453 -0.55,0.153 -0.41,0.7 -0.753,1.059 -0.458,0.008 -0.844,0.324 -0.997,0.414 -0.683,0.98 -1.793,1.668 -3.355,1.668 -0.637,0 -1.195,-0.125 -1.688,-0.324 -0.335,0.23 -0.429,0.601 -0.921,0.812 C 28.641,8.047 27.941,7.82 27.543,8.172 26.816,6.73 25.496,5.879 24.215,4.992 24.09,4.816 24.016,4.586 24.062,4.238 23.516,4.227 23.328,3.863 22.852,3.785 c -0.25,1.672 0.339,3.363 0.457,4.84 -0.485,0.133 -0.579,-0.133 -0.758,-0.301 -0.11,0.883 -0.149,1.258 0.148,1.969 -0.527,0.019 -0.359,0.746 -1.054,0.605 -0.215,-0.039 -0.176,-0.336 -0.309,-0.453 -0.574,0.125 -1.156,0.254 -1.813,0.301 0.52,0.512 -0.281,0.324 -0.457,0.606 -0.144,0.238 0.215,1.105 -0.453,0.906 0.348,1.18 -0.234,3.039 -0.906,4.086 -0.758,0.16 -1.223,0.867 -1.859,1.015 -0.692,0.914 -1.774,1.547 -3.27,1.547 -0.402,0 -0.769,-0.058 -1.113,-0.14 0.246,0.289 0.465,0.593 0.492,1.058 0.02,0.406 -0.59,0.84 -0.305,1.516 -1.289,0.742 -1.175,1.953 -2.722,2.418 0.164,0.039 0.363,0.25 0.152,0.304 C 7.73,23.234 6.914,24.609 6.055,24.668 5.395,25.75 6.262,27.07 5.75,28.301 6.234,28.168 6.223,28.531 6.355,28.754 5.031,28.773 3.473,27.832 2.875,26.633 3.082,26.641 3.207,26.562 3.328,26.484 3.469,24.523 1.285,24.09 0.152,23.91 L 0.227,24.137 0,24.211 c 0.449,0.867 1.555,1.066 2.117,1.816 -0.09,0.465 -0.5,0.61 -0.758,0.911 0.332,0.019 0.329,0.378 0.305,0.753 1.598,0.774 3.008,1.735 4.391,2.727 0.343,0.398 0.343,0.961 0,1.359 0.113,0.035 0.293,0.004 0.3,0.153 C 5.953,32.664 5.43,33.996 5.75,34.957 H 5.477 c 1.128,1.586 1.097,3.953 -0.098,5.492 0.019,0.035 0.055,0.063 0.066,0.106 -0.187,0.972 -0.441,1.883 -0.605,2.875 -0.672,0.004 -0.594,0.922 -0.754,1.363 -0.316,0.863 -0.953,1.762 -1.063,2.422 -0.335,2.027 0.286,3.656 1.817,4.539 0.281,1.691 2.105,1.832 2.574,3.332 0.727,0.566 0.981,2.457 0.606,3.93 C 7.578,58.98 7.496,59.305 7.266,59.473 5.77,59.035 4.234,59.18 3.328,60.078 2.09,59.848 0.758,60.531 0.758,60.531 l 0.449,1.668 c 0,0 1.453,-0.644 2.426,-1.062 0.801,-0.344 0.957,-0.782 1.965,-0.453 0.347,0.683 0.32,1.578 0.605,2.117 1.383,0.637 2.613,-0.328 4.238,0.152 0.114,0.594 0.684,0.727 1.059,1.063 0.648,0.804 0.363,1.8 0.906,2.57 0.406,0.57 1.469,0.637 1.211,1.211 1.235,0.004 2.231,0.234 2.571,0.754 0.996,1.5 -0.184,2.957 -1.36,2.879 -0.578,0.882 -1.148,1.773 -2.422,1.965 -0.172,0.785 -1.008,0.906 -1.664,1.21 0.106,0.465 0.106,0.293 0,0.758 0.199,0.153 0.559,0.149 0.758,0.301 0.738,-0.676 1.867,-0.957 2.422,-1.816 1.461,0.101 2.598,-0.125 3.48,-0.606 -0.152,-0.004 -0.191,-0.265 0,-0.301 1.961,-0.953 3.27,1.715 5.75,1.36 0.239,0.871 1.289,0.933 1.364,1.969 -0.438,0.07 -0.36,0.652 -0.758,0.757 0.023,1.207 -0.938,1.809 -0.906,2.571 h -0.454 c -0.058,0.277 -0.125,0.515 -0.199,0.726 0.75,-0.219 1.559,-0.254 2.336,-0.043 0.117,0.035 0.223,0.09 0.336,0.133 0.067,-0.035 0.141,-0.066 0.25,-0.059 v -1.058 c 1.039,-0.363 5.445,1.797 6.453,1.383 C 31.031,79.262 26.715,74.918 25.523,74.039 16.418,67.324 11.227,56.574 11.633,45.289 12.238,28.504 25.34,14.422 42.105,12.535 c 0.645,-0.074 1.293,0.164 1.747,0.637 0.449,0.469 0.656,1.129 0.554,1.773 l -3.894,24.41 h 7.265 c 0.645,0 1.25,0.297 1.649,0.805 0.394,0.504 0.539,1.164 0.386,1.789 L 45.508,59.41 58.051,37.527 h -7.496 c -0.625,0 -1.219,-0.281 -1.617,-0.765 -0.399,-0.485 -0.555,-1.125 -0.434,-1.739 l 3.969,-19.851 c 0.117,-0.574 0.465,-1.07 0.961,-1.375 0.496,-0.305 1.097,-0.387 1.656,-0.231 5.504,1.543 10.598,4.512 14.738,8.586 6.59,6.485 10.219,15.149 10.219,24.391 0,10.863 -5.25,21.184 -14.051,27.605 -1.637,1.188 -5.723,3.145 -6.012,5.379 0.036,-0.027 -0.605,0.114 0.106,-0.078 2.043,0.524 4.871,3.293 8.012,2.727 0.343,-1.309 0.433,-2.688 -0.762,-3.332 0.629,-0.289 0.816,-1.098 0.91,-1.512 1.094,-0.746 1.293,-0.922 2.27,-1.969 1.242,-0.301 3.75,-1.336 4.542,0.153 1.29,0.078 2.165,0.668 2.876,-0.454 0.476,0.075 0.535,-0.273 1.058,-0.152 l -0.074,-0.226 0.226,-0.079 c -0.558,-0.597 -0.39,-1.304 -1.058,-2.117 1.156,-0.281 1.672,-0.371 2.722,-0.605 0.075,-0.531 0.387,-0.824 0.606,-1.211 -0.449,-0.512 -0.609,-1.305 -1.211,-1.664 0.063,-0.719 -0.07,-1.238 -0.305,-1.664 0.649,-0.821 0.856,-2.071 1.664,-2.727 0.735,-0.125 1.118,-0.031 1.563,0.094 0.023,-0.02 0.051,-0.043 0.074,-0.066 0,-1.11 0.399,-2.211 1.223,-3.047 -0.137,-0.321 -0.235,-0.664 -0.434,-0.91 0.199,-0.157 0.563,-0.145 0.606,-0.458 -0.274,-0.332 -0.133,-1.078 -0.305,-1.511 0.695,-0.426 0.457,-1.047 1.059,-1.364 -0.176,-0.023 -0.426,0.024 -0.454,-0.152 0.801,-0.519 0.446,-1.594 0.606,-3.18 0.336,-0.269 0.805,-0.402 1.058,-0.753 0.583,0.382 1.415,-0.184 1.969,-0.153 0.387,0.024 0.68,0.313 1.059,0.305 2.125,-0.047 -1.293,-1.32 0.859,-1.363 -0.289,-0.704 -0.398,-1.477 -0.332,-2.243 -0.543,0.016 -1.058,0.118 -1.465,0.274 -0.39,-0.164 -0.738,-0.367 -1.359,-0.305 -0.199,0.004 -0.141,0.27 -0.305,0.305 -0.832,-0.703 2.95,0.14 1.543,-0.152 -0.008,-0.208 0.071,-0.333 0.153,-0.45 -0.672,0.336 -0.911,-0.406 -1.516,0 0.457,-0.593 -0.879,-0.761 -1.059,-0.758 0.313,-0.042 0.301,-0.406 0.457,-0.609 -0.527,0.074 -0.171,-0.738 -0.605,-0.754 0.012,-0.238 0.383,-0.117 0.301,-0.453 -0.539,-0.902 0.039,-1.512 0.011,-2.34 -0.957,-1.39 -1.023,-3.347 -0.226,-4.832 -0.18,-0.613 -0.231,-1.258 -0.164,-1.894 -0.086,-0.692 3.668,-2.739 3.879,-3.399 -0.09,-0.234 2.875,0.387 -0.125,-0.781 -0.117,-0.574 -3.832,0.164 -3.739,-0.418 -0.156,-0.941 -0.543,-1.816 -0.242,-2.531 -0.769,-0.188 -1.004,-0.91 -1.968,-0.907 v -0.457 c -0.567,0.086 -0.973,0.157 -1.211,0 -0.024,-1.132 -0.762,-1.554 -0.606,-2.871 1.317,-0.789 1.602,-1.996 2.727,-2.726 0.859,0.008 1.429,-0.703 2.117,-1.059 0.133,-0.066 0.461,0.082 0.605,0 0.442,-0.242 0.731,-0.785 1.211,-1.058 0.657,-0.371 1.418,-0.52 2.27,-0.758 0.258,-0.395 1.211,-0.754 1.211,-0.754 z"
               style="fill:url(#linearGradient28);stroke:none"
               id="path30"
               inkscape:connector-curvature="0" /></g></g></g><path
         d="M 49.339605,12.548425 C 49.641298,6.1199773 31.815523,-11.097371 20.427431,-23.921493 -6.7891432,-47.471509 -25.060333,-79.456055 -23.759647,-115.33541 c 1.786177,-49.12171 39.176358,-92.33055 86.953912,-102.51866 l -13.840168,86.86695 c -0.355062,2.19559 0.2826,4.43103 1.713723,6.11576 1.441973,1.68111 3.536122,2.65934 5.760694,2.65934 H 82.37122 L 56.176353,-15.910864 c -0.905769,3.666556 1.032586,7.445428 4.543339,8.8439367 3.510767,1.4021318 7.528762,0.028989 9.398278,-3.2680167 l 78.80198,-137.492246 c 1.34416,-2.35138 1.34416,-5.22448 -0.0145,-7.57223 -1.35866,-2.33689 -3.85135,-3.77888 -6.55416,-3.77888 h -30.99545 l 10.89823,-54.51647 c 14.47783,5.30781 27.85424,13.77133 39.04954,24.78186 20.95952,20.61895 32.49178,48.17609 32.49178,77.57013 0,34.546065 -16.69877,67.35305 -44.66531,87.761857 -10.91273,7.909183 -28.50278,21.4413845 -28.50278,36.20181 m 11.64821,14.731441 c 1.72458,-6.238942 1.8701,-13.182223 3.83321,-19.1914518 2.31025,-7.0718092 15.37362,-14.5511748 21.3046,-18.8553932 31.88672,-23.263794 51.55554,-61.290748 51.55554,-100.648263 0,-33.49899 -13.14816,-64.87487 -37.02426,-88.38502 -15.01404,-14.74594 -33.47001,-25.50286 -53.41143,-31.09326 -2.02531,-0.56521 -4.20278,-0.26812 -5.99982,0.83693 -1.79704,1.10503 -3.05788,2.90208 -3.46728,4.98172 l -14.394506,71.92176 c -0.43839,2.22457 0.126844,4.54334 1.572411,6.30053 1.441988,1.75357 3.5941,2.77166 5.858525,2.77166 h 27.1586 L 83.831282,-64.724613 99.41053,-127.98721 c 0.554319,-2.24993 0.04347,-4.65565 -1.398517,-6.48168 -1.445607,-1.84053 -3.63757,-2.90209 -5.974452,-2.90209 H 65.71589 l 14.108271,-88.45386 c 0.369551,-2.33326 -0.365931,-4.7245 -2.007194,-6.42372 -1.63039,-1.71372 -3.992627,-2.57602 -6.329522,-2.3079 -60.740922,6.83675 -108.196018,57.85695 -110.387981,118.67034 -1.485463,40.886453 16.688792,80.467708 49.691422,104.796688 3.161829,3.6639615 2.096973,1.9555672 9.933188,11.15977183 2.647065,3.10917167 5.06964,6.22567517 7.828315,9.42245617 4.479035,5.190359 7.229142,9.050195 10.200537,17.859532"
         style="fill:#2a2b2a;fill-opacity:1;fill-rule:nonzero;stroke:none;stroke-width:3.62307954"
         id="path32"
         inkscape:connector-curvature="0"
         sodipodi:nodetypes="ccccccsccccccscccscccscsccscccsccccsccccccssc" /><path
         d="m 119.67807,42.920701 c 0.49636,3.101356 -1.34417,6.735305 -4.3006,7.699044 L 54.958998,70.405381 c -0.652148,0.19927 -1.31517,0.692009 -1.952837,0.692009 -2.688325,0 -5.181004,-0.945623 -6.057789,-3.633949 -1.076054,-3.340479 0.749977,-5.380273 4.075964,-6.47082 l 22.191366,-4.13031 H 52.962678 c -3.510759,0 -6.354876,-6.467198 -6.354876,-9.977962 0,-3.510763 2.844117,-9.963467 6.354876,-9.963467 h 60.432962 c 3.12672,0 5.78969,2.916578 6.28243,5.999819 z m -6.3114,38.879266 H 93.171622 L 115.334,71.778529 c 3.32598,-1.076055 5.16651,-6.072281 4.07596,-9.41276 -1.07606,-3.340479 -4.65565,-5.873012 -7.99613,-4.796958 l -60.375001,19.23493 c -2.970925,0.9891 -4.796958,5.249841 -4.315088,8.333082 0.478247,3.086863 3.155702,6.626612 6.28242,6.626612 h 5.492592 L 68.092661,106.734 h 29.962875 l 9.749704,-14.970565 h 5.56143 c 3.52525,0 6.35488,-1.474593 6.35488,-4.981734 0,-3.510764 -2.82963,-4.981734 -6.35488,-4.981734 z"
         style="fill:#2a2b2a;fill-opacity:1;fill-rule:nonzero;stroke:none;stroke-width:3.62307954"
         id="path34"
         inkscape:connector-curvature="0" /></g></g></svg>