<?xml version="1.0" encoding="UTF-8" standalone="no"?>
<!-- Created with Inkscape (http://www.inkscape.org/) -->

<svg
   xmlns:dc="http://purl.org/dc/elements/1.1/"
   xmlns:cc="http://creativecommons.org/ns#"
   xmlns:rdf="http://www.w3.org/1999/02/22-rdf-syntax-ns#"
   xmlns:svg="http://www.w3.org/2000/svg"
   xmlns="http://www.w3.org/2000/svg"
   xmlns:xlink="http://www.w3.org/1999/xlink"
   xmlns:sodipodi="http://sodipodi.sourceforge.net/DTD/sodipodi-0.dtd"
   xmlns:inkscape="http://www.inkscape.org/namespaces/inkscape"
   version="1.1"
   id="svg2"
   xml:space="preserve"
   width="918.33862"
   height="362.89908"
   viewBox="0 0 918.33862 362.89909"
   sodipodi:docname="logo.svg"
   inkscape:version="0.92.3 (2405546, 2018-03-11)"
   inkscape:export-filename="/home/mike/Desktop/voltic/logo/winner/logo1.png"
   inkscape:export-xdpi="96"
   inkscape:export-ydpi="96"><metadata
     id="metadata8"><rdf:RDF><cc:Work
         rdf:about=""><dc:format>image/svg+xml</dc:format><dc:type
           rdf:resource="http://purl.org/dc/dcmitype/StillImage" /><dc:title></dc:title></cc:Work></rdf:RDF></metadata><defs
     id="defs6"><clipPath
       clipPathUnits="userSpaceOnUse"
       id="clipPath20"><path
         d="m 89.285,19.371 c 0,0 -0.207,-0.195 -0.453,-0.152 -0.777,0.875 -2.477,1.511 -2.875,2.269 -1.371,0.649 -2.059,1.141 -3.785,1.516 -1.399,-1.316 -3.488,0.144 -4.234,-1.363 -0.356,-0.715 0.003,-1.5 -0.153,-2.422 -0.246,-0.66 -1.008,-0.809 -1.058,-1.664 -1.915,0.05 -2.469,-0.625 -3.786,-0.758 0.039,-0.395 -0.824,-1.047 -0.757,-1.969 0,0.156 -0.262,0.192 -0.301,0 0.527,-0.875 -0.11,-2.133 -0.606,-2.871 0.215,-0.187 0.285,-0.523 0.301,-0.91 0.09,-0.434 -0.785,-0.692 -0.906,-1.363 -2.016,-0.286 -3.563,-0.278 -5.297,0.757 -1.109,-0.777 -2.184,-0.8 -3.027,-1.664 0.484,-1.363 0.804,-2.16 0.605,-3.328 1.035,-0.168 1.008,-1.168 1.059,-1.969 0.3,0.25 0.195,-0.015 0.609,0 C 64.727,2.016 65.219,1.438 65.375,0.301 65.195,0.23 65.031,0.141 64.922,0 64.102,0.039 63.738,0.531 63.105,0.758 63.227,2.426 61.98,2.508 62.199,3.629 60.906,4.094 60.062,5.031 59.777,5.75 58.785,5.918 58.535,6.828 57.957,7.414 57.684,7.137 57.449,6.816 57.055,6.66 55.801,6.957 55.109,6.262 54.328,6.203 54.91,5.879 54.145,6.016 54.328,5.297 53.477,5.594 53.855,4.66 53.57,4.387 52.582,4.227 52.621,4.617 51.305,4.691 l 0.074,0.227 -0.227,-0.074 c -0.675,0.738 -1.754,0.879 -2.683,0.75 -0.637,0.433 -1.426,0.707 -2.395,0.707 -1.512,0 -2.597,-0.649 -3.289,-1.571 -0.07,0.184 -0.156,0.329 -0.262,0.415 C 41.996,4.688 42.188,5.227 41.316,4.992 40.848,4.66 40.699,4.246 40.406,4.086 39.496,3.984 39.152,3.32 38.137,3.328 c -0.114,0.59 -0.891,0.231 -1.211,0.457 -0.153,0.106 0.097,0.387 -0.153,0.453 -0.55,0.153 -0.41,0.7 -0.753,1.059 -0.458,0.008 -0.844,0.324 -0.997,0.414 -0.683,0.98 -1.793,1.668 -3.355,1.668 -0.637,0 -1.195,-0.125 -1.688,-0.324 -0.335,0.23 -0.429,0.601 -0.921,0.812 C 28.641,8.047 27.941,7.82 27.543,8.172 26.816,6.73 25.496,5.879 24.215,4.992 24.09,4.816 24.016,4.586 24.062,4.238 23.516,4.227 23.328,3.863 22.852,3.785 c -0.25,1.672 0.339,3.363 0.457,4.84 -0.485,0.133 -0.579,-0.133 -0.758,-0.301 -0.11,0.883 -0.149,1.258 0.148,1.969 -0.527,0.019 -0.359,0.746 -1.054,0.605 -0.215,-0.039 -0.176,-0.336 -0.309,-0.453 -0.574,0.125 -1.156,0.254 -1.813,0.301 0.52,0.512 -0.281,0.324 -0.457,0.606 -0.144,0.238 0.215,1.105 -0.453,0.906 0.348,1.18 -0.234,3.039 -0.906,4.086 -0.758,0.16 -1.223,0.867 -1.859,1.015 -0.692,0.914 -1.774,1.547 -3.27,1.547 -0.402,0 -0.769,-0.058 -1.113,-0.14 0.246,0.289 0.465,0.593 0.492,1.058 0.02,0.406 -0.59,0.84 -0.305,1.516 -1.289,0.742 -1.175,1.953 -2.722,2.418 0.164,0.039 0.363,0.25 0.152,0.304 C 7.73,23.234 6.914,24.609 6.055,24.668 5.395,25.75 6.262,27.07 5.75,28.301 6.234,28.168 6.223,28.531 6.355,28.754 5.031,28.773 3.473,27.832 2.875,26.633 3.082,26.641 3.207,26.562 3.328,26.484 3.469,24.523 1.285,24.09 0.152,23.91 L 0.227,24.137 0,24.211 c 0.449,0.867 1.555,1.066 2.117,1.816 -0.09,0.465 -0.5,0.61 -0.758,0.911 0.332,0.019 0.329,0.378 0.305,0.753 1.598,0.774 3.008,1.735 4.391,2.727 0.343,0.398 0.343,0.961 0,1.359 0.113,0.035 0.293,0.004 0.3,0.153 C 5.953,32.664 5.43,33.996 5.75,34.957 H 5.477 c 1.128,1.586 1.097,3.953 -0.098,5.492 0.019,0.035 0.055,0.063 0.066,0.106 -0.187,0.972 -0.441,1.883 -0.605,2.875 -0.672,0.004 -0.594,0.922 -0.754,1.363 -0.316,0.863 -0.953,1.762 -1.063,2.422 -0.335,2.027 0.286,3.656 1.817,4.539 0.281,1.691 2.105,1.832 2.574,3.332 0.727,0.566 0.981,2.457 0.606,3.93 C 7.578,58.98 7.496,59.305 7.266,59.473 5.77,59.035 4.234,59.18 3.328,60.078 2.09,59.848 0.758,60.531 0.758,60.531 l 0.449,1.668 c 0,0 1.453,-0.644 2.426,-1.062 0.801,-0.344 0.957,-0.782 1.965,-0.453 0.347,0.683 0.32,1.578 0.605,2.117 1.383,0.637 2.613,-0.328 4.238,0.152 0.114,0.594 0.684,0.727 1.059,1.063 0.648,0.804 0.363,1.8 0.906,2.57 0.406,0.57 1.469,0.637 1.211,1.211 1.235,0.004 2.231,0.234 2.571,0.754 0.996,1.5 -0.184,2.957 -1.36,2.879 -0.578,0.882 -1.148,1.773 -2.422,1.965 -0.172,0.785 -1.008,0.906 -1.664,1.21 0.106,0.465 0.106,0.293 0,0.758 0.199,0.153 0.559,0.149 0.758,0.301 0.738,-0.676 1.867,-0.957 2.422,-1.816 1.461,0.101 2.598,-0.125 3.48,-0.606 -0.152,-0.004 -0.191,-0.265 0,-0.301 1.961,-0.953 3.27,1.715 5.75,1.36 0.239,0.871 1.289,0.933 1.364,1.969 -0.438,0.07 -0.36,0.652 -0.758,0.757 0.023,1.207 -0.938,1.809 -0.906,2.571 h -0.454 c -0.058,0.277 -0.125,0.515 -0.199,0.726 0.75,-0.219 1.559,-0.254 2.336,-0.043 0.117,0.035 0.223,0.09 0.336,0.133 0.067,-0.035 0.141,-0.066 0.25,-0.059 v -1.058 c 1.039,-0.363 5.445,1.797 6.453,1.383 C 31.031,79.262 26.715,74.918 25.523,74.039 16.418,67.324 11.227,56.574 11.633,45.289 12.238,28.504 25.34,14.422 42.105,12.535 c 0.645,-0.074 1.293,0.164 1.747,0.637 0.449,0.469 0.656,1.129 0.554,1.773 l -3.894,24.41 h 7.265 c 0.645,0 1.25,0.297 1.649,0.805 0.394,0.504 0.539,1.164 0.386,1.789 L 45.508,59.41 58.051,37.527 h -7.496 c -0.625,0 -1.219,-0.281 -1.617,-0.765 -0.399,-0.485 -0.555,-1.125 -0.434,-1.739 l 3.969,-19.851 c 0.117,-0.574 0.465,-1.07 0.961,-1.375 0.496,-0.305 1.097,-0.387 1.656,-0.231 5.504,1.543 10.598,4.512 14.738,8.586 6.59,6.485 10.219,15.149 10.219,24.391 0,10.863 -5.25,21.184 -14.051,27.605 -1.637,1.188 -5.723,3.145 -6.012,5.379 0.036,-0.027 -0.605,0.114 0.106,-0.078 2.043,0.524 4.871,3.293 8.012,2.727 0.343,-1.309 0.433,-2.688 -0.762,-3.332 0.629,-0.289 0.816,-1.098 0.91,-1.512 1.094,-0.746 1.293,-0.922 2.27,-1.969 1.242,-0.301 3.75,-1.336 4.542,0.153 1.29,0.078 2.165,0.668 2.876,-0.454 0.476,0.075 0.535,-0.273 1.058,-0.152 l -0.074,-0.226 0.226,-0.079 c -0.558,-0.597 -0.39,-1.304 -1.058,-2.117 1.156,-0.281 1.672,-0.371 2.722,-0.605 0.075,-0.531 0.387,-0.824 0.606,-1.211 -0.449,-0.512 -0.609,-1.305 -1.211,-1.664 0.063,-0.719 -0.07,-1.238 -0.305,-1.664 0.649,-0.821 0.856,-2.071 1.664,-2.727 0.735,-0.125 1.118,-0.031 1.563,0.094 0.023,-0.02 0.051,-0.043 0.074,-0.066 0,-1.11 0.399,-2.211 1.223,-3.047 -0.137,-0.321 -0.235,-0.664 -0.434,-0.91 0.199,-0.157 0.563,-0.145 0.606,-0.458 -0.274,-0.332 -0.133,-1.078 -0.305,-1.511 0.695,-0.426 0.457,-1.047 1.059,-1.364 -0.176,-0.023 -0.426,0.024 -0.454,-0.152 0.801,-0.519 0.446,-1.594 0.606,-3.18 0.336,-0.269 0.805,-0.402 1.058,-0.753 0.583,0.382 1.415,-0.184 1.969,-0.153 0.387,0.024 0.68,0.313 1.059,0.305 2.125,-0.047 -1.293,-1.32 0.859,-1.363 -0.289,-0.704 -0.398,-1.477 -0.332,-2.243 -0.543,0.016 -1.058,0.118 -1.465,0.274 -0.39,-0.164 -0.738,-0.367 -1.359,-0.305 -0.199,0.004 -0.141,0.27 -0.305,0.305 -0.832,-0.703 2.95,0.14 1.543,-0.152 -0.008,-0.208 0.071,-0.333 0.153,-0.45 -0.672,0.336 -0.911,-0.406 -1.516,0 0.457,-0.593 -0.879,-0.761 -1.059,-0.758 0.313,-0.042 0.301,-0.406 0.457,-0.609 -0.527,0.074 -0.171,-0.738 -0.605,-0.754 0.012,-0.238 0.383,-0.117 0.301,-0.453 -0.539,-0.902 0.039,-1.512 0.011,-2.34 -0.957,-1.39 -1.023,-3.347 -0.226,-4.832 -0.18,-0.613 -0.231,-1.258 -0.164,-1.894 -0.086,-0.692 3.668,-2.739 3.879,-3.399 -0.09,-0.234 2.875,0.387 -0.125,-0.781 -0.117,-0.574 -3.832,0.164 -3.739,-0.418 -0.156,-0.941 -0.543,-1.816 -0.242,-2.531 -0.769,-0.188 -1.004,-0.91 -1.968,-0.907 v -0.457 c -0.567,0.086 -0.973,0.157 -1.211,0 -0.024,-1.132 -0.762,-1.554 -0.606,-2.871 1.317,-0.789 1.602,-1.996 2.727,-2.726 0.859,0.008 1.429,-0.703 2.117,-1.059 0.133,-0.066 0.461,0.082 0.605,0 0.442,-0.242 0.731,-0.785 1.211,-1.058 0.657,-0.371 1.418,-0.52 2.27,-0.758 0.258,-0.395 1.211,-0.754 1.211,-0.754 z"
         id="path18"
         inkscape:connector-curvature="0" /></clipPath><linearGradient
       x1="330.94052"
       y1="506.46106"
       x2="507.61954"
       y2="506.46106"
       gradientUnits="userSpaceOnUse"
       gradientTransform="matrix(0.610454,0,0,0.610454,-208.14058,-268.04516)"
       spreadMethod="pad"
       id="linearGradient28"><stop
         style="stop-opacity:1;stop-color:#ffe259"
         offset="0"
         id="stop24" /><stop
         style="stop-opacity:1;stop-color:#ffa751"
         offset="1"
         id="stop26" /></linearGradient><clipPath
       clipPathUnits="userSpaceOnUse"
       id="clipPath42"><path
         d="M 0,0 H 271 V 107 H 0 Z"
         id="path40"
         inkscape:connector-curvature="0" /></clipPath><clipPath
       clipPathUnits="userSpaceOnUse"
       id="clipPath58"><path
         d="M 0,0 H 271 V 107 H 0 Z"
         id="path56"
         inkscape:connector-curvature="0" /></clipPath><clipPath
       clipPathUnits="userSpaceOnUse"
       id="clipPath80"><path
         d="M 0,0 H 271 V 107 H 0 Z"
         id="path78"
         inkscape:connector-curvature="0" /></clipPath><clipPath
       clipPathUnits="userSpaceOnUse"
       id="clipPath98"><path
         d="m 99.594,86.359 c 0.312,-0.308 0.504,-0.5 0.504,-0.5 h -6.641 v 12.575 h 7.621 v 0.589 H 92.867 V 85.27 h 8.664 l -1.222,1.089 m -3.961,4.133 -0.828,0.75 h 4.398 v 0.59 h -5.832 c 0,0 0.898,-0.894 1.348,-1.34"
         id="path96"
         inkscape:connector-curvature="0" /></clipPath><clipPath
       clipPathUnits="userSpaceOnUse"
       id="clipPath128"><path
         d="m 173.164,94.777 -0.293,-0.507 1.102,-0.629 c 0.902,-0.5 1.355,-1.293 1.355,-2.379 0,-2.032 -1.547,-3.047 -4.637,-3.047 h -1.808 v 14.738 h -0.59 V 87.629 h 2.398 c 1.727,0 3.032,0.32 3.911,0.961 0.875,0.629 1.316,1.519 1.316,2.672 0,1.308 -0.551,2.273 -1.652,2.886 z"
         id="path126"
         inkscape:connector-curvature="0" /></clipPath><linearGradient
       x1="232.54716"
       y1="127.05247"
       x2="242.71074"
       y2="127.05247"
       gradientUnits="userSpaceOnUse"
       gradientTransform="matrix(0.75,0,0,0.75,-6.116738,0)"
       spreadMethod="pad"
       id="linearGradient136"><stop
         style="stop-opacity:1;stop-color:#ffe259"
         offset="0"
         id="stop132" /><stop
         style="stop-opacity:1;stop-color:#ffa751"
         offset="1"
         id="stop134" /></linearGradient><linearGradient
       inkscape:collect="always"
       xlink:href="#linearGradient136"
       id="linearGradient898"
       x1="229.879"
       y1="33.571999"
       x2="236.578"
       y2="33.571999"
       gradientUnits="userSpaceOnUse" /><linearGradient
       inkscape:collect="always"
       xlink:href="#linearGradient136"
       id="linearGradient890"
       gradientUnits="userSpaceOnUse"
       x1="229.879"
       y1="33.571999"
       x2="236.578"
       y2="33.571999" /><linearGradient
       inkscape:collect="always"
       xlink:href="#linearGradient136"
       id="linearGradient892"
       gradientUnits="userSpaceOnUse"
       x1="229.879"
       y1="33.571999"
       x2="236.578"
       y2="33.571999" /><linearGradient
       inkscape:collect="always"
       xlink:href="#linearGradient136"
       id="linearGradient894"
       gradientUnits="userSpaceOnUse"
       x1="229.879"
       y1="33.571999"
       x2="236.578"
       y2="33.571999" /><linearGradient
       inkscape:collect="always"
       xlink:href="#linearGradient136"
       id="linearGradient896"
       gradientUnits="userSpaceOnUse"
       x1="229.879"
       y1="33.571999"
       x2="236.578"
       y2="33.571999" /><linearGradient
       inkscape:collect="always"
       xlink:href="#linearGradient136"
       id="linearGradient899"
       gradientUnits="userSpaceOnUse"
       x1="229.879"
       y1="33.571999"
       x2="236.578"
       y2="33.571999" /></defs><sodipodi:namedview
     pagecolor="#ffffff"
     bordercolor="#666666"
     borderopacity="1"
     objecttolerance="10"
     gridtolerance="10"
     guidetolerance="10"
     inkscape:pageopacity="0"
     inkscape:pageshadow="2"
     inkscape:window-width="2515"
     inkscape:window-height="1379"
     id="namedview4"
     showgrid="false"
     inkscape:zoom="1.0729299"
     inkscape:cx="611.41471"
     inkscape:cy="84.329444"
     inkscape:window-x="1411"
     inkscape:window-y="27"
     inkscape:window-maximized="1"
     inkscape:current-layer="g12"
     fit-margin-top="0"
     fit-margin-left="0"
     fit-margin-right="0"
     fit-margin-bottom="0"
     inkscape:pagecheckerboard="false" /><g
     id="g10"
     inkscape:groupmode="layer"
     inkscape:label="logo_5_3_2"
     transform="matrix(1.3333333,0,0,1.3333333,558.20929,220.58709)"><g
       id="g12"><g
         id="g14"
         transform="matrix(2.5500246,0,0,2.5500246,-418.65698,-165.44032)"><g
           id="g16"
           clip-path="url(#clipPath20)"><g
             id="g22"><path
               d="m 89.285,19.371 c 0,0 -0.207,-0.195 -0.453,-0.152 -0.777,0.875 -2.477,1.511 -2.875,2.269 -1.371,0.649 -2.059,1.141 -3.785,1.516 -1.399,-1.316 -3.488,0.144 -4.234,-1.363 -0.356,-0.715 0.003,-1.5 -0.153,-2.422 -0.246,-0.66 -1.008,-0.809 -1.058,-1.664 -1.915,0.05 -2.469,-0.625 -3.786,-0.758 0.039,-0.395 -0.824,-1.047 -0.757,-1.969 0,0.156 -0.262,0.192 -0.301,0 0.527,-0.875 -0.11,-2.133 -0.606,-2.871 0.215,-0.187 0.285,-0.523 0.301,-0.91 0.09,-0.434 -0.785,-0.692 -0.906,-1.363 -2.016,-0.286 -3.563,-0.278 -5.297,0.757 -1.109,-0.777 -2.184,-0.8 -3.027,-1.664 0.484,-1.363 0.804,-2.16 0.605,-3.328 1.035,-0.168 1.008,-1.168 1.059,-1.969 0.3,0.25 0.195,-0.015 0.609,0 C 64.727,2.016 65.219,1.438 65.375,0.301 65.195,0.23 65.031,0.141 64.922,0 64.102,0.039 63.738,0.531 63.105,0.758 63.227,2.426 61.98,2.508 62.199,3.629 60.906,4.094 60.062,5.031 59.777,5.75 58.785,5.918 58.535,6.828 57.957,7.414 57.684,7.137 57.449,6.816 57.055,6.66 55.801,6.957 55.109,6.262 54.328,6.203 54.91,5.879 54.145,6.016 54.328,5.297 53.477,5.594 53.855,4.66 53.57,4.387 52.582,4.227 52.621,4.617 51.305,4.691 l 0.074,0.227 -0.227,-0.074 c -0.675,0.738 -1.754,0.879 -2.683,0.75 -0.637,0.433 -1.426,0.707 -2.395,0.707 -1.512,0 -2.597,-0.649 -3.289,-1.571 -0.07,0.184 -0.156,0.329 -0.262,0.415 C 41.996,4.688 42.188,5.227 41.316,4.992 40.848,4.66 40.699,4.246 40.406,4.086 39.496,3.984 39.152,3.32 38.137,3.328 c -0.114,0.59 -0.891,0.231 -1.211,0.457 -0.153,0.106 0.097,0.387 -0.153,0.453 -0.55,0.153 -0.41,0.7 -0.753,1.059 -0.458,0.008 -0.844,0.324 -0.997,0.414 -0.683,0.98 -1.793,1.668 -3.355,1.668 -0.637,0 -1.195,-0.125 -1.688,-0.324 -0.335,0.23 -0.429,0.601 -0.921,0.812 C 28.641,8.047 27.941,7.82 27.543,8.172 26.816,6.73 25.496,5.879 24.215,4.992 24.09,4.816 24.016,4.586 24.062,4.238 23.516,4.227 23.328,3.863 22.852,3.785 c -0.25,1.672 0.339,3.363 0.457,4.84 -0.485,0.133 -0.579,-0.133 -0.758,-0.301 -0.11,0.883 -0.149,1.258 0.148,1.969 -0.527,0.019 -0.359,0.746 -1.054,0.605 -0.215,-0.039 -0.176,-0.336 -0.309,-0.453 -0.574,0.125 -1.156,0.254 -1.813,0.301 0.52,0.512 -0.281,0.324 -0.457,0.606 -0.144,0.238 0.215,1.105 -0.453,0.906 0.348,1.18 -0.234,3.039 -0.906,4.086 -0.758,0.16 -1.223,0.867 -1.859,1.015 -0.692,0.914 -1.774,1.547 -3.27,1.547 -0.402,0 -0.769,-0.058 -1.113,-0.14 0.246,0.289 0.465,0.593 0.492,1.058 0.02,0.406 -0.59,0.84 -0.305,1.516 -1.289,0.742 -1.175,1.953 -2.722,2.418 0.164,0.039 0.363,0.25 0.152,0.304 C 7.73,23.234 6.914,24.609 6.055,24.668 5.395,25.75 6.262,27.07 5.75,28.301 6.234,28.168 6.223,28.531 6.355,28.754 5.031,28.773 3.473,27.832 2.875,26.633 3.082,26.641 3.207,26.562 3.328,26.484 3.469,24.523 1.285,24.09 0.152,23.91 L 0.227,24.137 0,24.211 c 0.449,0.867 1.555,1.066 2.117,1.816 -0.09,0.465 -0.5,0.61 -0.758,0.911 0.332,0.019 0.329,0.378 0.305,0.753 1.598,0.774 3.008,1.735 4.391,2.727 0.343,0.398 0.343,0.961 0,1.359 0.113,0.035 0.293,0.004 0.3,0.153 C 5.953,32.664 5.43,33.996 5.75,34.957 H 5.477 c 1.128,1.586 1.097,3.953 -0.098,5.492 0.019,0.035 0.055,0.063 0.066,0.106 -0.187,0.972 -0.441,1.883 -0.605,2.875 -0.672,0.004 -0.594,0.922 -0.754,1.363 -0.316,0.863 -0.953,1.762 -1.063,2.422 -0.335,2.027 0.286,3.656 1.817,4.539 0.281,1.691 2.105,1.832 2.574,3.332 0.727,0.566 0.981,2.457 0.606,3.93 C 7.578,58.98 7.496,59.305 7.266,59.473 5.77,59.035 4.234,59.18 3.328,60.078 2.09,59.848 0.758,60.531 0.758,60.531 l 0.449,1.668 c 0,0 1.453,-0.644 2.426,-1.062 0.801,-0.344 0.957,-0.782 1.965,-0.453 0.347,0.683 0.32,1.578 0.605,2.117 1.383,0.637 2.613,-0.328 4.238,0.152 0.114,0.594 0.684,0.727 1.059,1.063 0.648,0.804 0.363,1.8 0.906,2.57 0.406,0.57 1.469,0.637 1.211,1.211 1.235,0.004 2.231,0.234 2.571,0.754 0.996,1.5 -0.184,2.957 -1.36,2.879 -0.578,0.882 -1.148,1.773 -2.422,1.965 -0.172,0.785 -1.008,0.906 -1.664,1.21 0.106,0.465 0.106,0.293 0,0.758 0.199,0.153 0.559,0.149 0.758,0.301 0.738,-0.676 1.867,-0.957 2.422,-1.816 1.461,0.101 2.598,-0.125 3.48,-0.606 -0.152,-0.004 -0.191,-0.265 0,-0.301 1.961,-0.953 3.27,1.715 5.75,1.36 0.239,0.871 1.289,0.933 1.364,1.969 -0.438,0.07 -0.36,0.652 -0.758,0.757 0.023,1.207 -0.938,1.809 -0.906,2.571 h -0.454 c -0.058,0.277 -0.125,0.515 -0.199,0.726 0.75,-0.219 1.559,-0.254 2.336,-0.043 0.117,0.035 0.223,0.09 0.336,0.133 0.067,-0.035 0.141,-0.066 0.25,-0.059 v -1.058 c 1.039,-0.363 5.445,1.797 6.453,1.383 C 31.031,79.262 26.715,74.918 25.523,74.039 16.418,67.324 11.227,56.574 11.633,45.289 12.238,28.504 25.34,14.422 42.105,12.535 c 0.645,-0.074 1.293,0.164 1.747,0.637 0.449,0.469 0.656,1.129 0.554,1.773 l -3.894,24.41 h 7.265 c 0.645,0 1.25,0.297 1.649,0.805 0.394,0.504 0.539,1.164 0.386,1.789 L 45.508,59.41 58.051,37.527 h -7.496 c -0.625,0 -1.219,-0.281 -1.617,-0.765 -0.399,-0.485 -0.555,-1.125 -0.434,-1.739 l 3.969,-19.851 c 0.117,-0.574 0.465,-1.07 0.961,-1.375 0.496,-0.305 1.097,-0.387 1.656,-0.231 5.504,1.543 10.598,4.512 14.738,8.586 6.59,6.485 10.219,15.149 10.219,24.391 0,10.863 -5.25,21.184 -14.051,27.605 -1.637,1.188 -5.723,3.145 -6.012,5.379 0.036,-0.027 -0.605,0.114 0.106,-0.078 2.043,0.524 4.871,3.293 8.012,2.727 0.343,-1.309 0.433,-2.688 -0.762,-3.332 0.629,-0.289 0.816,-1.098 0.91,-1.512 1.094,-0.746 1.293,-0.922 2.27,-1.969 1.242,-0.301 3.75,-1.336 4.542,0.153 1.29,0.078 2.165,0.668 2.876,-0.454 0.476,0.075 0.535,-0.273 1.058,-0.152 l -0.074,-0.226 0.226,-0.079 c -0.558,-0.597 -0.39,-1.304 -1.058,-2.117 1.156,-0.281 1.672,-0.371 2.722,-0.605 0.075,-0.531 0.387,-0.824 0.606,-1.211 -0.449,-0.512 -0.609,-1.305 -1.211,-1.664 0.063,-0.719 -0.07,-1.238 -0.305,-1.664 0.649,-0.821 0.856,-2.071 1.664,-2.727 0.735,-0.125 1.118,-0.031 1.563,0.094 0.023,-0.02 0.051,-0.043 0.074,-0.066 0,-1.11 0.399,-2.211 1.223,-3.047 -0.137,-0.321 -0.235,-0.664 -0.434,-0.91 0.199,-0.157 0.563,-0.145 0.606,-0.458 -0.274,-0.332 -0.133,-1.078 -0.305,-1.511 0.695,-0.426 0.457,-1.047 1.059,-1.364 -0.176,-0.023 -0.426,0.024 -0.454,-0.152 0.801,-0.519 0.446,-1.594 0.606,-3.18 0.336,-0.269 0.805,-0.402 1.058,-0.753 0.583,0.382 1.415,-0.184 1.969,-0.153 0.387,0.024 0.68,0.313 1.059,0.305 2.125,-0.047 -1.293,-1.32 0.859,-1.363 -0.289,-0.704 -0.398,-1.477 -0.332,-2.243 -0.543,0.016 -1.058,0.118 -1.465,0.274 -0.39,-0.164 -0.738,-0.367 -1.359,-0.305 -0.199,0.004 -0.141,0.27 -0.305,0.305 -0.832,-0.703 2.95,0.14 1.543,-0.152 -0.008,-0.208 0.071,-0.333 0.153,-0.45 -0.672,0.336 -0.911,-0.406 -1.516,0 0.457,-0.593 -0.879,-0.761 -1.059,-0.758 0.313,-0.042 0.301,-0.406 0.457,-0.609 -0.527,0.074 -0.171,-0.738 -0.605,-0.754 0.012,-0.238 0.383,-0.117 0.301,-0.453 -0.539,-0.902 0.039,-1.512 0.011,-2.34 -0.957,-1.39 -1.023,-3.347 -0.226,-4.832 -0.18,-0.613 -0.231,-1.258 -0.164,-1.894 -0.086,-0.692 3.668,-2.739 3.879,-3.399 -0.09,-0.234 2.875,0.387 -0.125,-0.781 -0.117,-0.574 -3.832,0.164 -3.739,-0.418 -0.156,-0.941 -0.543,-1.816 -0.242,-2.531 -0.769,-0.188 -1.004,-0.91 -1.968,-0.907 v -0.457 c -0.567,0.086 -0.973,0.157 -1.211,0 -0.024,-1.132 -0.762,-1.554 -0.606,-2.871 1.317,-0.789 1.602,-1.996 2.727,-2.726 0.859,0.008 1.429,-0.703 2.117,-1.059 0.133,-0.066 0.461,0.082 0.605,0 0.442,-0.242 0.731,-0.785 1.211,-1.058 0.657,-0.371 1.418,-0.52 2.27,-0.758 0.258,-0.395 1.211,-0.754 1.211,-0.754 z"
               style="fill:url(#linearGradient28);stroke:none"
               id="path30"
               inkscape:connector-curvature="0" /></g></g></g><path
         d="m -326.8765,40.443562 c 0.21234,-4.524522 -12.33394,-16.642572 -20.34919,-25.668547 -19.15579,-16.5751601 -32.01556,-39.086777 -31.1001,-64.33967 1.25716,-34.573233 27.57341,-64.984825 61.20059,-72.155495 l -9.7411,61.139389 c -0.2499,1.545315 0.1989,3.11868 1.20616,4.304441 1.01491,1.183212 2.48883,1.871718 4.05454,1.871718 h 17.97768 l -18.43668,74.817721 c -0.63751,2.580625 0.72676,5.2403 3.19773,6.22461 2.47097,0.986859 5.29895,0.0204 6.61476,-2.300122 l 55.46304,-96.770882 c 0.94606,-1.654966 0.94606,-3.677136 -0.0102,-5.329552 -0.95626,-1.644765 -2.71068,-2.659675 -4.613,-2.659675 h -21.81546 l 7.67048,-38.370218 c 10.18989,3.73578 19.60458,9.69264 27.48416,17.44217 14.75189,14.512186 22.86862,33.907673 22.86862,54.596022 0,24.314484 -11.75306,47.40495653 -31.4367,61.769245 -7.68068,5.566703 -20.06105,15.091045 -20.06105,25.479845 m 8.19833,10.3684 c 1.21382,-4.391142 1.31623,-9.278017 2.69793,-13.50748 1.62601,-4.977337 10.82038,-10.241523 14.99477,-13.270953 22.44277,-16.3737072 36.28622,-43.13814 36.28622,-70.839057 0,-23.577527 -9.25404,-45.66074 -26.0587,-62.207852 -10.5673,-10.3786 -23.55712,-17.94962 -37.59246,-21.88431 -1.42546,-0.3978 -2.95803,-0.1887 -4.22284,0.58906 -1.26481,0.77776 -2.15222,2.04257 -2.44037,3.50628 l -10.13125,50.620539 c -0.30855,1.565715 0.0892,3.197731 1.10671,4.434493 1.01491,1.234212 2.52962,1.950769 4.12339,1.950769 h 19.11498 l -31.97475,55.802187 10.9651,-44.525979 c 0.39015,-1.583565 0.0306,-3.276781 -0.98431,-4.561994 -1.01746,-1.295412 -2.56022,-2.042569 -4.20499,-2.042569 h -18.52593 l 9.9298,-62.256296 c 0.2601,-1.64222 -0.25755,-3.32524 -1.41272,-4.5212 -1.14751,-1.20616 -2.81012,-1.81306 -4.45489,-1.62436 -42.75116,4.81189 -76.15138,40.721339 -77.69415,83.523501 -1.04551,28.777027 11.74604,56.6354209 34.97422,73.758836 2.22538,2.578799 1.4759,1.376383 6.99125,7.85456 1.86308,2.188321 3.56815,4.381804 5.50979,6.631788 3.15247,3.653119 5.08807,6.36978 7.17942,12.570037"
         style="fill:#2a2b2a;fill-opacity:1;fill-rule:nonzero;stroke:none;stroke-width:2.55002451"
         id="path32"
         inkscape:connector-curvature="0"
         sodipodi:nodetypes="ccccccsccccccscccscccscsccscccsccccsccccccssc" /><path
         d="m -277.37032,61.820418 c 0.34935,2.182821 -0.94606,4.740495 -3.02688,5.418802 l -42.52421,13.925684 c -0.459,0.140251 -0.92566,0.487054 -1.37446,0.487054 -1.89212,0 -3.64654,-0.665556 -4.26364,-2.557674 -0.75736,-2.351123 0.52785,-3.786787 2.86877,-4.554344 l 15.6189,-2.907028 h -14.25463 c -2.47098,0 -4.47275,-4.551794 -4.47275,-7.022768 0,-2.470973 2.00177,-7.012567 4.47275,-7.012567 h 42.53441 c 2.20067,0 4.07494,2.05277 4.42174,4.222841 z m -4.44214,27.364313 h -14.21384 l 15.5985,-7.053368 c 2.34092,-0.757357 3.63633,-4.273841 2.86878,-6.624964 -0.75736,-2.351122 -3.27678,-4.133589 -5.62791,-3.376232 l -42.49361,13.53808 c -2.09102,0.696157 -3.37623,3.694986 -3.03708,5.865057 0.33661,2.172621 2.22108,4.663995 4.42175,4.663995 h 3.86583 l 6.75247,10.536701 h 21.0887 l 6.86212,-10.536701 h 3.91429 c 2.48117,0 4.47274,-1.03786 4.47274,-3.506284 0,-2.470974 -1.99157,-3.506284 -4.47274,-3.506284 z"
         style="fill:#2a2b2a;fill-opacity:1;fill-rule:nonzero;stroke:none;stroke-width:2.55002451"
         id="path34"
         inkscape:connector-curvature="0" /><g
         id="g36"
         style="fill:url(#linearGradient898);fill-opacity:1"
         transform="matrix(2.5500246,0,0,2.5500246,-418.65698,-165.44032)"><g
           id="g38"
           style="fill:url(#linearGradient890);fill-opacity:1" /><g
           id="g50"
           style="fill:url(#linearGradient899);fill-opacity:1"><g
             clip-path="url(#clipPath42)"
             id="g48"
             style="opacity:0.95999995;fill:url(#linearGradient896);fill-opacity:1"><g
               id="g46"
               style="fill:url(#linearGradient894);fill-opacity:1"><path
                 d="m 232.023,40.156 4.555,-6.883 -3.871,-0.925 1.469,-5.36 -4.297,6.91 3.445,0.872 z"
                 style="fill:url(#linearGradient892);fill-opacity:1;fill-rule:nonzero;stroke:none"
                 id="path44"
                 inkscape:connector-curvature="0" /></g></g></g></g><g
         id="g52"
         transform="matrix(2.5500246,0,0,2.5500246,-418.65698,-165.44032)"><g
           id="g54" /><g
           id="g66"><g
             clip-path="url(#clipPath58)"
             id="g64"
             style="opacity:0.92000002"><g
               id="g62"><path
                 d="m 111.031,32.41 h 12.457 L 110.797,67.305 97.453,30.613 h -1.918 l 15.262,41.957 15.262,-41.957 h -15.028 m -6.539,0.707 c -0.004,0.004 -0.004,0.004 -0.008,0.008 0.008,0.008 0.012,0.012 0.02,0.02 -0.004,-0.012 -0.012,-0.02 -0.012,-0.028 z"
                 style="fill:#2a2b2a;fill-opacity:1;fill-rule:nonzero;stroke:none"
                 id="path60"
                 inkscape:connector-curvature="0" /></g></g></g></g><path
         d="M -21.789011,7.2728423 C -27.258813,14.724014 -36.102298,18.4496 -48.324566,18.4496 -60.546834,18.4496 -69.392869,14.724014 -74.852471,7.2728423 -80.319724,-0.27523038 -83.0508,-12.000243 -83.0508,-27.897096 v -14.614191 c 0,-15.896853 2.731076,-27.570866 8.198329,-35.022037 5.459602,-7.550623 14.305637,-11.327209 26.527905,-11.327209 12.222268,0 21.065753,3.776586 26.535555,11.327209 5.457053,7.451171 8.198329,19.125184 8.198329,35.022037 v 14.614191 c 0,15.896853 -2.741276,27.62186562 -8.198329,35.1699383 z M -35.803945,-82.454872 c -3.478234,-1.285212 -7.650074,-1.932918 -12.520621,-1.932918 -4.873097,0 -9.044937,0.647706 -12.523171,1.932918 -3.475683,1.195962 -6.602013,3.276782 -9.38154,6.265411 -2.789727,2.978428 -4.870547,7.30072 -6.26541,12.969425 -1.384664,5.559053 -2.08337,12.46197 -2.08337,20.708749 v 14.614191 c 0,8.246779 0.698706,15.198146 2.08337,20.8668506 1.394863,5.5590535 3.475683,9.8328947 6.26541,12.8189734 2.779527,2.9784287 5.905857,5.110249 9.38154,6.405662 3.478234,1.195961 7.650074,1.792667 12.523171,1.792667 4.870547,0 9.042387,-0.596706 12.520621,-1.792667 3.475683,-1.295413 6.612213,-3.4272333 9.39174,-6.405662 2.779527,-2.9860787 4.870547,-7.2599199 6.25521,-12.8189734 1.394864,-5.6687046 2.09357,-12.6200716 2.09357,-20.8668506 v -14.614191 c 0,-8.246779 -0.698706,-15.149696 -2.09357,-20.708749 -1.384663,-5.668705 -3.475683,-9.990997 -6.25521,-12.969425 -2.779527,-2.988629 -5.916057,-5.069449 -9.39174,-6.265411 z"
         style="fill:#2a2b2a;fill-opacity:1;fill-rule:nonzero;stroke:none;stroke-width:2.55002451"
         id="path68"
         inkscape:connector-curvature="0" /><path
         d="m 74.81357,12.492743 v 4.472743 H 12.50627 V -87.376419 h 4.472743 v 99.869162 z"
         style="fill:#2a2b2a;fill-opacity:1;fill-rule:nonzero;stroke:none;stroke-width:2.55002451"
         id="path70"
         inkscape:connector-curvature="0" /><path
         d="m 153.69348,-87.376419 v 4.472743 H 118.67144 V 16.965486 H 114.1987 V -82.903676 H 79.176662 v -4.472743 z"
         style="fill:#2a2b2a;fill-opacity:1;fill-rule:nonzero;stroke:none;stroke-width:2.55002451"
         id="path72"
         inkscape:connector-curvature="0" /><g
         id="g74"
         transform="matrix(2.5500246,0,0,2.5500246,-418.65698,-165.44032)"><g
           id="g76" /><g
           id="g88"><g
             clip-path="url(#clipPath80)"
             id="g86"
             style="opacity:0.95999995"><g
               id="g84"><path
                 d="m 232.352,44.008 h 1.754 v 27.523 h -1.754 z"
                 style="fill:#2a2b2a;fill-opacity:1;fill-rule:nonzero;stroke:none"
                 id="path82"
                 inkscape:connector-curvature="0" /></g></g></g></g><path
         d="m 269.33199,-2.108698 c -2.68007,6.5535631 -6.45411,11.6230119 -11.32721,15.200696 -4.87054,3.575135 -12.17126,5.357602 -21.91236,5.357602 -12.22227,0 -21.0581,-3.725586 -26.5279,-11.1767577 -5.46726,-7.54807268 -8.19578,-19.2730853 -8.19578,-35.1699383 v -14.614191 c 0,-15.896853 2.72852,-27.570866 8.19578,-35.022037 5.4698,-7.550623 14.30563,-11.327209 26.5279,-11.327209 9.7411,0 17.04182,1.782467 21.91236,5.370351 4.8731,3.575135 8.64714,8.634383 11.32721,15.200697 l -4.02394,1.930368 c -2.28227,-5.755405 -5.50805,-10.179698 -9.68244,-13.257577 -4.17439,-3.187531 -10.6897,-4.771096 -19.53319,-4.771096 -4.86289,0 -9.03473,0.647706 -12.52062,1.932918 -3.47823,1.195962 -6.60456,3.276782 -9.38409,6.265411 -2.78973,2.978428 -4.87055,7.30072 -6.26541,12.969425 -1.38466,5.559053 -2.08337,12.46197 -2.08337,20.708749 v 14.614191 c 0,8.246779 0.69871,15.198146 2.08337,20.8668506 1.39486,5.5590535 3.47568,9.8328947 6.26541,12.8189734 2.77953,2.9784287 5.90586,5.110249 9.38409,6.405662 3.48589,1.195961 7.65773,1.792667 12.52062,1.792667 8.84349,0 15.3588,-1.542765 19.53319,-4.6206445 4.17439,-3.1773306 7.40017,-7.6500737 9.68244,-13.4182292 z"
         style="fill:#2a2b2a;fill-opacity:1;fill-rule:nonzero;stroke:none;stroke-width:2.55002451"
         id="path90"
         inkscape:connector-curvature="0" /><g
         id="g92"
         transform="matrix(3.1113671,0,0,3.1113671,-475.65065,-221.02614)"
         style="fill:#2a2b2a;fill-opacity:1"><g
           id="g94"
           clip-path="url(#clipPath98)"
           style="fill:#2a2b2a;fill-opacity:1"><g
             id="g100"
             style="fill:#2a2b2a;fill-opacity:1"><path
               d="m 99.594,86.359 c 0.312,-0.308 0.504,-0.5 0.504,-0.5 h -6.641 v 12.575 h 7.621 v 0.589 H 92.867 V 85.27 h 8.664 l -1.222,1.089 m -3.961,4.133 -0.828,0.75 h 4.398 v 0.59 h -5.832 c 0,0 0.898,-0.894 1.348,-1.34"
               style="fill:#2a2b2a;fill-opacity:1;stroke:none"
               id="path108"
               inkscape:connector-curvature="0" /></g></g></g><path
         d="m -153.16628,87.070761 v -29.05498 h 1.50452 l 16.33546,26.295853 V 58.015781 h 1.50451 v 29.05498 h -1.50451 l -16.33546,-26.354504 v 26.354504 z"
         style="fill:#2a2b2a;fill-opacity:1;fill-rule:nonzero;stroke:none;stroke-width:2.55002451"
         id="path110"
         inkscape:connector-curvature="0" /><path
         d="m -104.83566,84.112732 c -1.84112,2.302672 -4.85015,3.457833 -9.02454,3.457833 -4.17184,0 -7.16047,-1.185761 -8.96333,-3.557284 -1.80287,-2.368973 -2.71068,-6.194009 -2.71068,-11.47511 0,-5.278551 0.90781,-9.103588 2.71068,-11.475111 1.80286,-2.368973 4.79149,-3.554734 8.96333,-3.554734 4.8527,0 8.13968,1.593765 9.87115,4.760896 l -12.27072,10.268949 h -2.35112 l 12.67107,-10.567302 c -1.47392,-1.973719 -4.10554,-2.958029 -7.92038,-2.958029 -1.66261,0 -3.06768,0.188702 -4.20244,0.555906 -1.13476,0.328953 -2.19047,0.976659 -3.15693,1.953319 -0.93841,0.935859 -1.63456,2.320522 -2.10377,4.15399 -0.46665,1.802867 -0.70636,4.092789 -0.70636,6.862116 0,2.769326 0.23971,5.079649 0.70636,6.913116 0.46921,1.802868 1.16536,3.187531 2.10377,4.16419 0.96646,0.935859 2.02217,1.583566 3.15693,1.953319 1.13476,0.326403 2.53983,0.497255 4.20244,0.497255 3.81484,0 6.44646,-0.98686 7.92038,-2.958028 z"
         style="fill:#2a2b2a;fill-opacity:1;fill-rule:nonzero;stroke:none;stroke-width:2.55002451"
         id="path112"
         inkscape:connector-curvature="0" /><path
         d="m -84.534915,72.48972 6.813666,14.581041 h -1.652416 l -7.022768,-15.029845 c 0.06885,-0.0408 0.359554,-0.170852 0.856809,-0.397804 0.538055,-0.270302 0.905258,-0.459004 1.10416,-0.558455 0.201452,-0.130052 0.527855,-0.349354 0.99706,-0.647707 0.469204,-0.298352 0.816008,-0.586505 1.05571,-0.856808 0.229502,-0.298353 0.479405,-0.627306 0.747157,-0.997059 0.298353,-0.397804 0.517655,-0.836408 0.657907,-1.303063 0.130051,-0.499805 0.198901,-1.03786 0.198901,-1.603965 0,-2.101221 -1.007259,-3.656736 -3.009029,-4.661445 -2.001769,-0.99706 -4.490593,-1.504515 -7.458821,-1.504515 h -4.016289 v 27.560666 h -1.504515 v -29.05498 h 5.520804 c 3.934688,0 6.910566,0.678306 8.914885,2.05277 2.03237,1.364263 3.05748,3.235981 3.05748,5.607504 0,1.532564 -0.517655,2.907028 -1.555515,4.113189 -1.03531,1.165361 -2.269522,2.06297 -3.705186,2.700476 z"
         style="fill:#2a2b2a;fill-opacity:1;fill-rule:nonzero;stroke:none;stroke-width:2.55002451"
         id="path114"
         inkscape:connector-curvature="0" /><path
         d="m -59.243771,67.527372 6.665764,-5.556503 c -1.466264,-1.973719 -4.10554,-2.958029 -7.910176,-2.958029 -1.672816,0 -3.07788,0.188702 -4.212641,0.555906 -1.137311,0.328953 -2.182821,0.976659 -3.15948,1.953319 -0.925659,0.935859 -1.632016,2.320522 -2.10122,4.15399 -0.466655,1.802867 -0.696157,4.092789 -0.696157,6.862116 0,2.769326 0.229502,5.079649 0.696157,6.913116 0.469204,1.802868 1.175561,3.187531 2.10122,4.16419 0.976659,0.935859 2.022169,1.583566 3.15948,1.953319 1.134761,0.326403 2.539825,0.497255 4.212641,0.497255 3.776586,0 6.395461,-0.966459 7.859175,-2.909578 v -8.863885 h 1.504515 v 13.226977 c 0,6.375061 -2.919778,9.572792 -8.766984,9.572792 h -5.854857 v -1.504514 h 5.854857 c 2.511774,0 4.345241,-0.665557 5.510603,-2.01197 1.173011,-1.295412 1.751866,-3.804636 1.751866,-7.509822 v -0.747157 c -1.802867,1.504514 -4.421742,2.251671 -7.859175,2.251671 -4.17439,0 -7.163019,-1.185761 -8.973537,-3.557284 -1.805417,-2.368973 -2.700476,-6.194009 -2.700476,-11.47511 0,-5.278551 0.895059,-9.103588 2.700476,-11.475111 1.810518,-2.368973 4.799147,-3.554734 8.973537,-3.554734 4.839946,0 8.129478,1.593765 9.871145,4.760896 l -6.26541,5.25815 z"
         style="fill:#2a2b2a;fill-opacity:1;fill-rule:nonzero;stroke:none;stroke-width:2.55002451"
         id="path116"
         inkscape:connector-curvature="0" /><path
         d="m -42.319258,63.931838 h 1.504514 v 23.138923 h -1.504514 z"
         style="fill:#2a2b2a;fill-opacity:1;fill-rule:nonzero;stroke:none;stroke-width:2.55002451"
         id="path118"
         inkscape:connector-curvature="0" /><path
         d="m -23.482227,85.568796 h 11.225208 L -22.525968,61.371613 -33.452823,87.070761 h -1.593765 l 12.52062,-29.562435 12.520621,29.562435 h -13.47688 z"
         style="fill:#2a2b2a;fill-opacity:1;fill-rule:nonzero;stroke:none;stroke-width:2.55002451"
         id="path120"
         inkscape:connector-curvature="0" /><g
         id="g122"
         transform="matrix(3.0846635,0,0,3.0846635,-508.63296,-212.29019)"
         style="fill:#2a2b2a;fill-opacity:1"><g
           id="g124"
           clip-path="url(#clipPath128)"
           style="fill:#2a2b2a;fill-opacity:1"><g
             id="g130"
             style="fill:#2a2b2a;fill-opacity:1"><path
               d="m 173.164,94.777 -0.293,-0.507 1.102,-0.629 c 0.902,-0.5 1.355,-1.293 1.355,-2.379 0,-2.032 -1.547,-3.047 -4.637,-3.047 h -1.808 v 14.738 h -0.59 V 87.629 h 2.398 c 1.727,0 3.032,0.32 3.911,0.961 0.875,0.629 1.316,1.519 1.316,2.672 0,1.308 -0.551,2.273 -1.652,2.886 z"
               style="fill:#2a2b2a;fill-opacity:1;stroke:none"
               id="path138"
               inkscape:connector-curvature="0" /></g></g></g><path
         d="m 50.017131,72.48972 6.813665,14.581041 H 55.178381 L 48.165813,72.040916 c 0.06885,-0.0408 0.346803,-0.170852 0.856808,-0.397804 0.527855,-0.270302 0.895059,-0.459004 1.093961,-0.558455 0.198902,-0.130052 0.538055,-0.349354 1.00726,-0.647707 0.466654,-0.298352 0.816007,-0.586505 1.05571,-0.856808 0.229502,-0.298353 0.476854,-0.627306 0.747157,-0.997059 0.298353,-0.397804 0.517655,-0.836408 0.647706,-1.303063 0.137701,-0.499805 0.209102,-1.03786 0.209102,-1.603965 0,-2.101221 -1.00726,-3.656736 -3.009029,-4.661445 -2.001769,-0.99706 -4.493143,-1.504515 -7.471572,-1.504515 h -4.003538 v 27.560666 h -1.504515 v -29.05498 h 5.508053 c 3.944888,0 6.913117,0.678306 8.925086,2.05277 2.03237,1.364263 3.04983,3.235981 3.04983,5.607504 0,1.532564 -0.517655,2.907028 -1.555515,4.113189 -1.02511,1.165361 -2.269522,2.06297 -3.705186,2.700476 z"
         style="fill:#2a2b2a;fill-opacity:1;fill-rule:nonzero;stroke:none;stroke-width:2.55002451"
         id="path140"
         inkscape:connector-curvature="0" /><path
         d="M 76.97089,59.510095 H 61.34434 V 58.015781 H 79.582116 L 63.644462,85.568796 h 16.136555 v 1.501965 h -18.73758 z"
         style="fill:#2a2b2a;fill-opacity:1;fill-rule:nonzero;stroke:none;stroke-width:2.55002451"
         id="path142"
         inkscape:connector-curvature="0" /><path
         d="M 94.522709,58.015781 H 107.99959 L 96.226126,85.816149 V 97.092357 H 94.721611 V 85.816149 L 82.948148,58.015781 h 1.603965 L 95.468769,83.714928 105.74027,59.510095 H 94.522709 Z"
         style="fill:#2a2b2a;fill-opacity:1;fill-rule:nonzero;stroke:none;stroke-width:2.55002451"
         id="path144"
         inkscape:connector-curvature="0" /><path
         d="m 121.24952,57.408875 c 4.14379,0 7.08141,0.915459 8.82563,2.759127 l -1.00726,1.10416 c -1.60396,-1.573365 -4.14379,-2.361322 -7.60927,-2.361322 -5.2199,0 -7.82093,2.073169 -7.82093,6.216959 0,1.603966 0.63751,2.889178 1.90487,3.855638 1.26481,0.935859 2.80758,1.652415 4.61045,2.14967 1.83346,0.510005 3.65673,1.03786 5.4596,1.603966 1.83092,0.538055 3.38643,1.425463 4.66144,2.659675 1.26482,1.206162 1.90232,2.789727 1.90232,4.760896 0,2.302672 -0.95626,4.13614 -2.85858,5.510603 -1.90231,1.364263 -4.66144,2.05022 -8.26718,2.05022 -1.76461,0 -3.51648,-0.226952 -5.2607,-0.696157 -1.70341,-0.469204 -2.96822,-1.155161 -3.80463,-2.06297 l 1.00726,-1.09396 c 1.70086,1.563165 4.32229,2.351122 7.85917,2.351122 3.23598,0 5.67636,-0.599255 7.31092,-1.805417 1.67282,-1.203612 2.50923,-2.598475 2.50923,-4.20244 0,-1.672817 -0.63751,-3.02688 -1.90232,-4.06474 -1.27501,-1.03531 -2.81778,-1.802867 -4.66145,-2.300122 -1.80286,-0.538055 -3.62613,-1.06591 -5.4596,-1.603965 -1.80287,-0.568656 -3.33543,-1.433114 -4.61044,-2.608675 -1.26481,-1.165361 -1.90232,-2.700476 -1.90232,-4.602795 0,-2.570424 0.85681,-4.482943 2.55767,-5.717155 1.73402,-1.264812 3.92704,-1.902318 6.55612,-1.902318 z"
         style="fill:#2a2b2a;fill-opacity:1;fill-rule:nonzero;stroke:none;stroke-width:2.55002451"
         id="path146"
         inkscape:connector-curvature="0" /><path
         d="m 152.86472,59.510095 h -15.6291 v -1.494314 h 18.23013 l -15.92746,27.553015 h 16.12636 v 1.501965 h -18.73758 z"
         style="fill:#2a2b2a;fill-opacity:1;fill-rule:nonzero;stroke:none;stroke-width:2.55002451"
         id="path148"
         inkscape:connector-curvature="0" /><path
         d="m 160.9432,74.341038 -1.10416,-1.09396 3.05748,-3.06003 V 58.015781 h 1.50451 v 10.666753 l 2.45058,-2.458224 1.10416,1.104161 -3.55474,3.557284 v 14.683041 h 15.22875 v 1.501965 H 162.89652 V 72.390269 Z"
         style="fill:#2a2b2a;fill-opacity:1;fill-rule:nonzero;stroke:none;stroke-width:2.55002451"
         id="path150"
         inkscape:connector-curvature="0" /><path
         d="m 200.00193,59.568746 c -1.13732,-0.367204 -2.54238,-0.555906 -4.2152,-0.555906 -1.67281,0 -3.06768,0.188702 -4.20244,0.555906 -1.13731,0.328953 -2.19302,0.976659 -3.15693,1.953319 -0.93841,0.935859 -1.64476,2.320522 -2.10377,4.15399 -0.46665,1.802867 -0.70635,4.092789 -0.70635,6.862116 0,2.769326 0.2397,5.079649 0.70635,6.913116 0.45901,1.802868 1.16536,3.187531 2.10377,4.16419 0.96391,0.935859 2.01962,1.583566 3.15693,1.953319 1.13476,0.326403 2.52963,0.497255 4.20244,0.497255 1.67282,0 3.07788,-0.170852 4.2152,-0.497255 1.13476,-0.369753 2.17007,-1.01746 3.09572,-1.953319 0.97666,-0.976659 1.69577,-2.361322 2.16243,-4.16419 0.4692,-1.833467 0.6987,-4.14379 0.6987,-6.913116 0,-2.769327 -0.2295,-5.059249 -0.6987,-6.862116 -0.46666,-1.833468 -1.18577,-3.218131 -2.16243,-4.15399 -0.92565,-0.97666 -1.96096,-1.624366 -3.09572,-1.953319 z m 4.75069,24.444535 c -1.80287,2.371523 -4.7915,3.557284 -8.96589,3.557284 -4.17184,0 -7.16046,-1.185761 -8.96333,-3.557284 -1.80287,-2.368973 -2.71068,-6.194009 -2.71068,-11.47511 0,-5.278551 0.90781,-9.103588 2.71068,-11.475111 1.80287,-2.368973 4.79149,-3.554734 8.96333,-3.554734 4.17439,0 7.16302,1.185761 8.96589,3.554734 1.80287,2.371523 2.70813,6.19656 2.70813,11.475111 0,5.281101 -0.90526,9.106137 -2.70813,11.47511 z"
         style="fill:#2a2b2a;fill-opacity:1;fill-rule:nonzero;stroke:none;stroke-width:2.55002451"
         id="path152"
         inkscape:connector-curvature="0" /><path
         d="m 228.8478,48.792342 -5.8676,6.961567 -1.14496,-0.946059 5.8574,-7.012568 z"
         style="fill:#2a2b2a;fill-opacity:1;fill-rule:nonzero;stroke:none;stroke-width:2.55002451"
         id="path154"
         inkscape:connector-curvature="0" /><path
         d="m 223.3882,57.408875 c 4.13614,0 7.07377,0.915459 8.81799,2.759127 l -1.00726,1.10416 c -1.60397,-1.573365 -4.14379,-2.361322 -7.60928,-2.361322 -5.2097,0 -7.82092,2.073169 -7.82092,6.216959 0,1.603966 0.6375,2.889178 1.90232,3.855638 1.27501,0.935859 2.81012,1.652415 4.61299,2.14967 1.83347,0.510005 3.65418,1.03786 5.4596,1.603966 1.84112,0.538055 3.38643,1.425463 4.66145,2.659675 1.26481,1.206162 1.90232,2.789727 1.90232,4.760896 0,2.302672 -0.95626,4.13614 -2.85858,5.510603 -1.90232,1.364263 -4.6538,2.05022 -8.26973,2.05022 -1.76207,0 -3.51394,-0.226952 -5.25815,-0.696157 -1.70342,-0.469204 -2.96823,-1.155161 -3.80464,-2.06297 l 1.00471,-1.09396 c 1.70342,1.563165 4.32484,2.351122 7.85918,2.351122 3.24873,0 5.6789,-0.599255 7.32112,-1.805417 1.66516,-1.203612 2.50157,-2.598475 2.50157,-4.20244 0,-1.672817 -0.63751,-3.02688 -1.90232,-4.06474 -1.26481,-1.03531 -2.82032,-1.802867 -4.66144,-2.300122 -1.80287,-0.538055 -3.62614,-1.06591 -5.4596,-1.603965 -1.80287,-0.568656 -3.33799,-1.433114 -4.613,-2.608675 -1.26481,-1.165361 -1.90232,-2.700476 -1.90232,-4.602795 0,-2.570424 0.85681,-4.482943 2.56023,-5.717155 1.73401,-1.264812 3.92448,-1.902318 6.56376,-1.902318 z"
         style="fill:#2a2b2a;fill-opacity:1;fill-rule:nonzero;stroke:none;stroke-width:2.55002451"
         id="path156"
         inkscape:connector-curvature="0" /><path
         d="m 243.12284,84.013281 c -1.80287,-2.368973 -2.71068,-6.194009 -2.71068,-11.47511 0,-5.278551 0.90781,-9.103588 2.71068,-11.475111 1.80287,-2.368973 4.7915,-3.554734 8.96334,-3.554734 4.17439,0 7.18342,1.155161 9.01688,3.455283 l -1.09651,1.00726 c -1.47391,-1.973719 -4.11319,-2.958029 -7.92037,-2.958029 -1.66262,0 -3.06768,0.188702 -4.20244,0.555906 -1.13476,0.328953 -2.19047,0.976659 -3.15693,1.953319 -0.93841,0.935859 -1.63457,2.320522 -2.10377,4.15399 -0.46666,1.802867 -0.70636,4.092789 -0.70636,6.862116 0,2.769326 0.2397,5.079649 0.70636,6.913116 0.4692,1.802868 1.16536,3.187531 2.10377,4.16419 0.96646,0.935859 2.02217,1.583566 3.15693,1.953319 1.13476,0.326403 2.53982,0.497255 4.20244,0.497255 3.80718,0 6.44646,-0.98686 7.92037,-2.958028 l 1.09651,1.004709 c -1.83346,2.302672 -4.84249,3.457833 -9.01688,3.457833 -4.17184,0 -7.16047,-1.185761 -8.96334,-3.557284 z"
         style="fill:#2a2b2a;fill-opacity:1;fill-rule:nonzero;stroke:none;stroke-width:2.55002451"
         id="path158"
         inkscape:connector-curvature="0" /><path
         d="m 268.59249,63.942038 h 1.50451 v 23.128723 h -1.50451 z"
         style="fill:#2a2b2a;fill-opacity:1;fill-rule:nonzero;stroke:none;stroke-width:2.55002451"
         id="path160"
         inkscape:connector-curvature="0" /><path
         d="m -42.319258,57.786279 h 1.504514 v 3.18753 h -1.504514 z"
         style="fill:#2a2b2a;fill-opacity:1;fill-rule:nonzero;stroke:none;stroke-width:2.55002451"
         id="path162"
         inkscape:connector-curvature="0" /><path
         d="m 268.59249,57.786279 h 1.50451 v 3.18753 h -1.50451 z"
         style="fill:#2a2b2a;fill-opacity:1;fill-rule:nonzero;stroke:none;stroke-width:2.55002451"
         id="path164"
         inkscape:connector-curvature="0" /></g></g></svg>